<svg width="24" height="24" viewBox="0 0 24 24" fill="none" xmlns="http://www.w3.org/2000/svg">
<path d="M14.6855 11.5125L6.38379 10.05V20.8567C6.38369 20.9742 6.40678 21.0905 6.45173 21.199C6.49667 21.3076 6.5626 21.4061 6.64573 21.4891C6.72885 21.5721 6.82754 21.6379 6.93613 21.6826C7.04472 21.7274 7.16108 21.7503 7.27854 21.75H21.6035C21.7211 21.7505 21.8376 21.7277 21.9464 21.6831C22.0552 21.6384 22.154 21.5727 22.2373 21.4896C22.3206 21.4066 22.3867 21.308 22.4317 21.1994C22.4768 21.0908 22.4999 20.9743 22.4998 20.8567V16.875L14.6855 11.5125Z" fill="#185C37"/>
<path d="M14.6855 2.25H7.27854C7.16108 2.24971 7.04472 2.2726 6.93613 2.31736C6.82754 2.36213 6.72885 2.42789 6.64573 2.51088C6.5626 2.59386 6.49667 2.69244 6.45173 2.80096C6.40678 2.90947 6.38369 3.0258 6.38379 3.14325V7.125L14.6855 12L19.0813 13.4625L22.4998 12V7.125L14.6855 2.25Z" fill="#21A366"/>
<path d="M6.38379 7.125H14.6855V12H6.38379V7.125Z" fill="#107C41"/>
<path opacity="0.1" d="M12.3253 6.14999H6.38379V18.3375H12.3253C12.562 18.3363 12.7888 18.2419 12.9564 18.0747C13.124 17.9075 13.219 17.681 13.2208 17.4442V7.04324C13.219 6.8065 13.124 6.57999 12.9564 6.41279C12.7888 6.24559 12.562 6.15117 12.3253 6.14999Z" fill="black"/>
<path opacity="0.2" d="M11.837 6.63751H6.38379V18.825H11.837C12.0738 18.8238 12.3005 18.7294 12.4682 18.5622C12.6358 18.395 12.7308 18.1685 12.7325 17.9318V7.53076C12.7308 7.29402 12.6358 7.0675 12.4682 6.90031C12.3005 6.73311 12.0738 6.63869 11.837 6.63751Z" fill="black"/>
<path opacity="0.2" d="M11.837 6.63751H6.38379V17.85H11.837C12.0738 17.8488 12.3005 17.7544 12.4682 17.5872C12.6358 17.42 12.7308 17.1935 12.7325 16.9568V7.53076C12.7308 7.29402 12.6358 7.0675 12.4682 6.90031C12.3005 6.73311 12.0738 6.63869 11.837 6.63751Z" fill="black"/>
<path opacity="0.2" d="M11.3488 6.63751H6.38379V17.85H11.3488C11.5855 17.8488 11.8123 17.7544 11.9799 17.5872C12.1475 17.42 12.2425 17.1935 12.2443 16.9568V7.53076C12.2425 7.29402 12.1475 7.0675 11.9799 6.90031C11.8123 6.73311 11.5855 6.63869 11.3488 6.63751Z" fill="black"/>
<path d="M2.3955 6.63749H11.349C11.5862 6.63729 11.8137 6.73126 11.9816 6.89876C12.1496 7.06625 12.2441 7.29356 12.2445 7.53074V16.4692C12.2441 16.7064 12.1496 16.9337 11.9816 17.1012C11.8137 17.2687 11.5862 17.3627 11.349 17.3625H2.3955C2.27798 17.3629 2.16154 17.3401 2.05286 17.2953C1.94418 17.2506 1.84541 17.1849 1.7622 17.1019C1.679 17.0189 1.613 16.9203 1.56801 16.8117C1.52301 16.7031 1.4999 16.5868 1.5 16.4692V7.53074C1.4999 7.41322 1.52301 7.29683 1.56801 7.18827C1.613 7.0797 1.679 6.98109 1.7622 6.8981C1.84541 6.8151 1.94418 6.74935 2.05286 6.70463C2.16154 6.65991 2.27798 6.63709 2.3955 6.63749Z" fill="url(#paint0_linear_32_6439)"/>
<path d="M4.27539 14.9047L6.15864 11.9917L4.43364 9.09525H5.81889L6.76014 10.95C6.84714 11.1255 6.91014 11.256 6.93864 11.343H6.95139C7.01289 11.2025 7.07789 11.066 7.14639 10.9335L8.15289 9.09825H9.42789L7.65864 11.9782L9.47289 14.907H8.11614L7.02864 12.8737C6.97829 12.7863 6.93539 12.6947 6.90039 12.6H6.88239C6.85061 12.6923 6.80833 12.7806 6.75639 12.8632L5.63664 14.9047H4.27539Z" fill="white"/>
<path d="M21.6043 2.25001H14.6855V7.125H22.4998V3.14325C22.4999 3.02573 22.4768 2.90935 22.4318 2.80079C22.3868 2.69222 22.3208 2.59361 22.2376 2.51061C22.1544 2.42762 22.0556 2.36187 21.9469 2.31715C21.8383 2.27243 21.7218 2.24961 21.6043 2.25001Z" fill="#33C481"/>
<path d="M14.6855 12H22.4998V16.875H14.6855V12Z" fill="#107C41"/>
<defs>
<linearGradient id="paint0_linear_32_6439" x1="3.3705" y1="5.93549" x2="10.374" y2="18.0645" gradientUnits="userSpaceOnUse">
<stop stop-color="#18884F"/>
<stop offset="0.5" stop-color="#117E43"/>
<stop offset="1" stop-color="#0B6631"/>
</linearGradient>
</defs>
</svg>
