<svg width="1440" height="1024" viewBox="0 0 1440 1024" fill="none" xmlns="http://www.w3.org/2000/svg">
<g clip-path="url(#clip0_0_4755)">
<rect width="1440" height="1024" fill="white"/>
<path d="M735.307 204C694.907 135.2 718.474 -4.66667 735.307 -66L1414.81 -167L1479.31 104.5L1440.81 705.5C1362.14 706.5 1186.71 699 1114.31 661C1023.81 613.5 1064.81 537 989.807 497C914.807 457 957.807 351.5 931.807 311.5C905.807 271.5 785.807 290 735.307 204Z" fill="#8DCDE7"/>
<path d="M87.1973 747.61H91.5586V749.49H87.1973V754.432H85.1992V749.49H80.8379V747.61H85.1992V743.045H87.1973V747.61Z" fill="#FF7152"/>
<path d="M87.1973 782.61H91.5586V784.49H87.1973V789.432H85.1992V784.49H80.8379V782.61H85.1992V778.045H87.1973V782.61Z" fill="#E5E5E5"/>
<path d="M87.1973 817.61H91.5586V819.49H87.1973V824.432H85.1992V819.49H80.8379V817.61H85.1992V813.045H87.1973V817.61Z" fill="#E5E5E5"/>
<path d="M122.197 747.61H126.559V749.49H122.197V754.432H120.199V749.49H115.838V747.61H120.199V743.045H122.197V747.61Z" fill="#E5E5E5"/>
<path d="M122.197 782.61H126.559V784.49H122.197V789.432H120.199V784.49H115.838V782.61H120.199V778.045H122.197V782.61Z" fill="#E5E5E5"/>
<path d="M122.197 817.61H126.559V819.49H122.197V824.432H120.199V819.49H115.838V817.61H120.199V813.045H122.197V817.61Z" fill="#E5E5E5"/>
<path d="M122.197 852.61H126.559V854.49H122.197V859.432H120.199V854.49H115.838V852.61H120.199V848.045H122.197V852.61Z" fill="#E5E5E5"/>
<path d="M157.197 747.61H161.559V749.49H157.197V754.432H155.199V749.49H150.838V747.61H155.199V743.045H157.197V747.61Z" fill="#E5E5E5"/>
<path d="M157.197 782.61H161.559V784.49H157.197V789.432H155.199V784.49H150.838V782.61H155.199V778.045H157.197V782.61Z" fill="#E5E5E5"/>
<path d="M157.197 817.61H161.559V819.49H157.197V824.432H155.199V819.49H150.838V817.61H155.199V813.045H157.197V817.61Z" fill="#6246E5"/>
<path d="M157.197 852.61H161.559V854.49H157.197V859.432H155.199V854.49H150.838V852.61H155.199V848.045H157.197V852.61Z" fill="#E5E5E5"/>
<path d="M157.197 887.61H161.559V889.49H157.197V894.432H155.199V889.49H150.838V887.61H155.199V883.045H157.197V887.61Z" fill="#E5E5E5"/>
<path d="M192.197 747.61H196.559V749.49H192.197V754.432H190.199V749.49H185.838V747.61H190.199V743.045H192.197V747.61Z" fill="#E5E5E5"/>
<path d="M192.197 782.61H196.559V784.49H192.197V789.432H190.199V784.49H185.838V782.61H190.199V778.045H192.197V782.61Z" fill="#E5E5E5"/>
<path d="M192.197 817.61H196.559V819.49H192.197V824.432H190.199V819.49H185.838V817.61H190.199V813.045H192.197V817.61Z" fill="#E5E5E5"/>
<path d="M192.197 852.61H196.559V854.49H192.197V859.432H190.199V854.49H185.838V852.61H190.199V848.045H192.197V852.61Z" fill="#E5E5E5"/>
<path d="M192.197 887.61H196.559V889.49H192.197V894.432H190.199V889.49H185.838V887.61H190.199V883.045H192.197V887.61Z" fill="#E5E5E5"/>
<path d="M227.197 747.61H231.559V749.49H227.197V754.432H225.199V749.49H220.838V747.61H225.199V743.045H227.197V747.61Z" fill="#E5E5E5"/>
<path d="M227.197 782.61H231.559V784.49H227.197V789.432H225.199V784.49H220.838V782.61H225.199V778.045H227.197V782.61Z" fill="#E5E5E5"/>
<path d="M227.197 817.61H231.559V819.49H227.197V824.432H225.199V819.49H220.838V817.61H225.199V813.045H227.197V817.61Z" fill="#E5E5E5"/>
<path d="M227.197 852.61H231.559V854.49H227.197V859.432H225.199V854.49H220.838V852.61H225.199V848.045H227.197V852.61Z" fill="#E5E5E5"/>
<path d="M227.197 887.61H231.559V889.49H227.197V894.432H225.199V889.49H220.838V887.61H225.199V883.045H227.197V887.61Z" fill="#E5E5E5"/>
<path d="M532.197 82.6104H536.559V84.4902H532.197V89.4316H530.199V84.4902H525.838V82.6104H530.199V78.0449H532.197V82.6104Z" fill="#FF7152"/>
<path d="M532.197 117.61H536.559V119.49H532.197V124.432H530.199V119.49H525.838V117.61H530.199V113.045H532.197V117.61Z" fill="#E5E5E5"/>
<path d="M532.197 152.61H536.559V154.49H532.197V159.432H530.199V154.49H525.838V152.61H530.199V148.045H532.197V152.61Z" fill="#E5E5E5"/>
<path d="M567.197 82.6104H571.559V84.4902H567.197V89.4316H565.199V84.4902H560.838V82.6104H565.199V78.0449H567.197V82.6104Z" fill="#E5E5E5"/>
<path d="M567.197 117.61H571.559V119.49H567.197V124.432H565.199V119.49H560.838V117.61H565.199V113.045H567.197V117.61Z" fill="#E5E5E5"/>
<path d="M567.197 152.61H571.559V154.49H567.197V159.432H565.199V154.49H560.838V152.61H565.199V148.045H567.197V152.61Z" fill="#E5E5E5"/>
<path d="M567.197 187.61H571.559V189.49H567.197V194.432H565.199V189.49H560.838V187.61H565.199V183.045H567.197V187.61Z" fill="#E5E5E5"/>
<path d="M602.197 82.6104H606.559V84.4902H602.197V89.4316H600.199V84.4902H595.838V82.6104H600.199V78.0449H602.197V82.6104Z" fill="#E5E5E5"/>
<path d="M602.197 117.61H606.559V119.49H602.197V124.432H600.199V119.49H595.838V117.61H600.199V113.045H602.197V117.61Z" fill="#E5E5E5"/>
<path d="M602.197 152.61H606.559V154.49H602.197V159.432H600.199V154.49H595.838V152.61H600.199V148.045H602.197V152.61Z" fill="#6246E5"/>
<path d="M602.197 187.61H606.559V189.49H602.197V194.432H600.199V189.49H595.838V187.61H600.199V183.045H602.197V187.61Z" fill="#E5E5E5"/>
<path d="M602.197 222.61H606.559V224.49H602.197V229.432H600.199V224.49H595.838V222.61H600.199V218.045H602.197V222.61Z" fill="#E5E5E5"/>
<path d="M637.197 82.6104H641.559V84.4902H637.197V89.4316H635.199V84.4902H630.838V82.6104H635.199V78.0449H637.197V82.6104Z" fill="#E5E5E5"/>
<path d="M637.197 117.61H641.559V119.49H637.197V124.432H635.199V119.49H630.838V117.61H635.199V113.045H637.197V117.61Z" fill="#E5E5E5"/>
<path d="M637.197 152.61H641.559V154.49H637.197V159.432H635.199V154.49H630.838V152.61H635.199V148.045H637.197V152.61Z" fill="#E5E5E5"/>
<path d="M637.197 187.61H641.559V189.49H637.197V194.432H635.199V189.49H630.838V187.61H635.199V183.045H637.197V187.61Z" fill="#E5E5E5"/>
<path d="M637.197 222.61H641.559V224.49H637.197V229.432H635.199V224.49H630.838V222.61H635.199V218.045H637.197V222.61Z" fill="#E5E5E5"/>
<path d="M672.197 82.6104H676.559V84.4902H672.197V89.4316H670.199V84.4902H665.838V82.6104H670.199V78.0449H672.197V82.6104Z" fill="#E5E5E5"/>
<path d="M672.197 117.61H676.559V119.49H672.197V124.432H670.199V119.49H665.838V117.61H670.199V113.045H672.197V117.61Z" fill="#E5E5E5"/>
<path d="M672.197 152.61H676.559V154.49H672.197V159.432H670.199V154.49H665.838V152.61H670.199V148.045H672.197V152.61Z" fill="#E5E5E5"/>
<path d="M672.197 187.61H676.559V189.49H672.197V194.432H670.199V189.49H665.838V187.61H670.199V183.045H672.197V187.61Z" fill="#E5E5E5"/>
<path d="M672.197 222.61H676.559V224.49H672.197V229.432H670.199V224.49H665.838V222.61H670.199V218.045H672.197V222.61Z" fill="#E5E5E5"/>
</g>
<defs>
<clipPath id="clip0_0_4755">
<rect width="1440" height="1024" fill="white"/>
</clipPath>
</defs>
</svg>
