<svg width="1440" height="1024" viewBox="0 0 1440 1024" fill="none" xmlns="http://www.w3.org/2000/svg">
<rect width="1440" height="1024" fill="white"/>
<path d="M1222.2 153.61H1226.56V155.49H1222.2V160.432H1220.2V155.49H1215.84V153.61H1220.2V149.045H1222.2V153.61Z" fill="#FF7152"/>
<path d="M1222.2 188.61H1226.56V190.49H1222.2V195.432H1220.2V190.49H1215.84V188.61H1220.2V184.045H1222.2V188.61Z" fill="#E5E5E5"/>
<path d="M1222.2 223.61H1226.56V225.49H1222.2V230.432H1220.2V225.49H1215.84V223.61H1220.2V219.045H1222.2V223.61Z" fill="#E5E5E5"/>
<path d="M1257.2 153.61H1261.56V155.49H1257.2V160.432H1255.2V155.49H1250.84V153.61H1255.2V149.045H1257.2V153.61Z" fill="#E5E5E5"/>
<path d="M1257.2 188.61H1261.56V190.49H1257.2V195.432H1255.2V190.49H1250.84V188.61H1255.2V184.045H1257.2V188.61Z" fill="#E5E5E5"/>
<path d="M1257.2 223.61H1261.56V225.49H1257.2V230.432H1255.2V225.49H1250.84V223.61H1255.2V219.045H1257.2V223.61Z" fill="#E5E5E5"/>
<path d="M1257.2 258.61H1261.56V260.49H1257.2V265.432H1255.2V260.49H1250.84V258.61H1255.2V254.045H1257.2V258.61Z" fill="#E5E5E5"/>
<path d="M1292.2 153.61H1296.56V155.49H1292.2V160.432H1290.2V155.49H1285.84V153.61H1290.2V149.045H1292.2V153.61Z" fill="#E5E5E5"/>
<path d="M1292.2 188.61H1296.56V190.49H1292.2V195.432H1290.2V190.49H1285.84V188.61H1290.2V184.045H1292.2V188.61Z" fill="#E5E5E5"/>
<path d="M1292.2 223.61H1296.56V225.49H1292.2V230.432H1290.2V225.49H1285.84V223.61H1290.2V219.045H1292.2V223.61Z" fill="#6246E5"/>
<path d="M1292.2 258.61H1296.56V260.49H1292.2V265.432H1290.2V260.49H1285.84V258.61H1290.2V254.045H1292.2V258.61Z" fill="#E5E5E5"/>
<path d="M1327.2 153.61H1331.56V155.49H1327.2V160.432H1325.2V155.49H1320.84V153.61H1325.2V149.045H1327.2V153.61Z" fill="#E5E5E5"/>
<path d="M1327.2 188.61H1331.56V190.49H1327.2V195.432H1325.2V190.49H1320.84V188.61H1325.2V184.045H1327.2V188.61Z" fill="#E5E5E5"/>
<path d="M1327.2 223.61H1331.56V225.49H1327.2V230.432H1325.2V225.49H1320.84V223.61H1325.2V219.045H1327.2V223.61Z" fill="#E5E5E5"/>
<path d="M1327.2 258.61H1331.56V260.49H1327.2V265.432H1325.2V260.49H1320.84V258.61H1325.2V254.045H1327.2V258.61Z" fill="#E5E5E5"/>
<path d="M1362.2 153.61H1366.56V155.49H1362.2V160.432H1360.2V155.49H1355.84V153.61H1360.2V149.045H1362.2V153.61Z" fill="#E5E5E5"/>
<path d="M1362.2 188.61H1366.56V190.49H1362.2V195.432H1360.2V190.49H1355.84V188.61H1360.2V184.045H1362.2V188.61Z" fill="#E5E5E5"/>
<path d="M1362.2 223.61H1366.56V225.49H1362.2V230.432H1360.2V225.49H1355.84V223.61H1360.2V219.045H1362.2V223.61Z" fill="#E5E5E5"/>
<path d="M1362.2 258.61H1366.56V260.49H1362.2V265.432H1360.2V260.49H1355.84V258.61H1360.2V254.045H1362.2V258.61Z" fill="#E5E5E5"/>
<path d="M228.803 147.61H224.441V149.49H228.803V154.432H230.801V149.49H235.162V147.61H230.801V143.045H228.803V147.61Z" fill="#FF7152"/>
<path d="M228.803 182.61H224.441V184.49H228.803V189.432H230.801V184.49H235.162V182.61H230.801V178.045H228.803V182.61Z" fill="#E5E5E5"/>
<path d="M228.803 217.61H224.441V219.49H228.803V224.432H230.801V219.49H235.162V217.61H230.801V213.045H228.803V217.61Z" fill="#E5E5E5"/>
<path d="M193.803 147.61H189.441V149.49H193.803V154.432H195.801V149.49H200.162V147.61H195.801V143.045H193.803V147.61Z" fill="#E5E5E5"/>
<path d="M193.803 182.61H189.441V184.49H193.803V189.432H195.801V184.49H200.162V182.61H195.801V178.045H193.803V182.61Z" fill="#E5E5E5"/>
<path d="M193.803 217.61H189.441V219.49H193.803V224.432H195.801V219.49H200.162V217.61H195.801V213.045H193.803V217.61Z" fill="#E5E5E5"/>
<path d="M193.803 252.61H189.441V254.49H193.803V259.432H195.801V254.49H200.162V252.61H195.801V248.045H193.803V252.61Z" fill="#E5E5E5"/>
<path d="M158.803 147.61H154.441V149.49H158.803V154.432H160.801V149.49H165.162V147.61H160.801V143.045H158.803V147.61Z" fill="#E5E5E5"/>
<path d="M158.803 182.61H154.441V184.49H158.803V189.432H160.801V184.49H165.162V182.61H160.801V178.045H158.803V182.61Z" fill="#E5E5E5"/>
<path d="M158.803 217.61H154.441V219.49H158.803V224.432H160.801V219.49H165.162V217.61H160.801V213.045H158.803V217.61Z" fill="#6246E5"/>
<path d="M158.803 252.61H154.441V254.49H158.803V259.432H160.801V254.49H165.162V252.61H160.801V248.045H158.803V252.61Z" fill="#E5E5E5"/>
<path d="M123.803 147.61H119.441V149.49H123.803V154.432H125.801V149.49H130.162V147.61H125.801V143.045H123.803V147.61Z" fill="#E5E5E5"/>
<path d="M123.803 182.61H119.441V184.49H123.803V189.432H125.801V184.49H130.162V182.61H125.801V178.045H123.803V182.61Z" fill="#E5E5E5"/>
<path d="M123.803 217.61H119.441V219.49H123.803V224.432H125.801V219.49H130.162V217.61H125.801V213.045H123.803V217.61Z" fill="#E5E5E5"/>
<path d="M123.803 252.61H119.441V254.49H123.803V259.432H125.801V254.49H130.162V252.61H125.801V248.045H123.803V252.61Z" fill="#E5E5E5"/>
<path d="M88.8027 147.61H84.4414V149.49H88.8027V154.432H90.8008V149.49H95.1621V147.61H90.8008V143.045H88.8027V147.61Z" fill="#E5E5E5"/>
<path d="M88.8027 182.61H84.4414V184.49H88.8027V189.432H90.8008V184.49H95.1621V182.61H90.8008V178.045H88.8027V182.61Z" fill="#E5E5E5"/>
<path d="M88.8027 217.61H84.4414V219.49H88.8027V224.432H90.8008V219.49H95.1621V217.61H90.8008V213.045H88.8027V217.61Z" fill="#E5E5E5"/>
<path d="M88.8027 252.61H84.4414V254.49H88.8027V259.432H90.8008V254.49H95.1621V252.61H90.8008V248.045H88.8027V252.61Z" fill="#E5E5E5"/>
</svg>
